<mxfile host="app.diagrams.net" modified="2023-09-26T02:57:30.268Z" agent="Mozilla/5.0 (X11; Linux x86_64) AppleWebKit/537.36 (KHTML, like Gecko) Chrome/117.0.0.0 Safari/537.36" etag="vRJ1VuOP0TtONgM6W8D0" version="21.8.2" type="device">
  <diagram name="Page-1" id="85hTtyZkeVBAQqya0IYv">
    <mxGraphModel dx="2514" dy="945" grid="1" gridSize="10" guides="1" tooltips="1" connect="1" arrows="1" fold="1" page="1" pageScale="1" pageWidth="827" pageHeight="1169" math="0" shadow="0">
      <root>
        <mxCell id="0" />
        <mxCell id="1" parent="0" />
        <mxCell id="XMAbvpqeA-bFauw44eoh-87" value="" style="rhombus;whiteSpace=wrap;html=1;" vertex="1" parent="1">
          <mxGeometry x="260" y="310" width="100" height="100" as="geometry" />
        </mxCell>
        <mxCell id="XMAbvpqeA-bFauw44eoh-49" value="FirstName" style="ellipse;whiteSpace=wrap;html=1;" vertex="1" parent="1">
          <mxGeometry x="-120" y="130" width="120" height="80" as="geometry" />
        </mxCell>
        <mxCell id="XMAbvpqeA-bFauw44eoh-50" value="Student" style="rounded=0;whiteSpace=wrap;html=1;" vertex="1" parent="1">
          <mxGeometry x="-60" y="330" width="120" height="60" as="geometry" />
        </mxCell>
        <mxCell id="XMAbvpqeA-bFauw44eoh-51" value="Student id" style="ellipse;whiteSpace=wrap;html=1;" vertex="1" parent="1">
          <mxGeometry x="-290" y="160" width="120" height="80" as="geometry" />
        </mxCell>
        <mxCell id="XMAbvpqeA-bFauw44eoh-52" value="Student year" style="ellipse;whiteSpace=wrap;html=1;" vertex="1" parent="1">
          <mxGeometry x="-270" y="330" width="120" height="80" as="geometry" />
        </mxCell>
        <mxCell id="XMAbvpqeA-bFauw44eoh-53" value="LastName" style="ellipse;whiteSpace=wrap;html=1;" vertex="1" parent="1">
          <mxGeometry x="60" y="150" width="120" height="80" as="geometry" />
        </mxCell>
        <mxCell id="XMAbvpqeA-bFauw44eoh-54" value="" style="endArrow=none;html=1;rounded=0;exitX=0.583;exitY=0.975;exitDx=0;exitDy=0;exitPerimeter=0;entryX=0.5;entryY=0;entryDx=0;entryDy=0;" edge="1" parent="1" source="XMAbvpqeA-bFauw44eoh-49" target="XMAbvpqeA-bFauw44eoh-50">
          <mxGeometry width="50" height="50" relative="1" as="geometry">
            <mxPoint x="-10" y="245" as="sourcePoint" />
            <mxPoint x="40" y="195" as="targetPoint" />
          </mxGeometry>
        </mxCell>
        <mxCell id="XMAbvpqeA-bFauw44eoh-55" value="" style="endArrow=none;html=1;rounded=0;exitX=1;exitY=0.65;exitDx=0;exitDy=0;exitPerimeter=0;" edge="1" parent="1" source="XMAbvpqeA-bFauw44eoh-51" target="XMAbvpqeA-bFauw44eoh-50">
          <mxGeometry width="50" height="50" relative="1" as="geometry">
            <mxPoint x="300" y="450" as="sourcePoint" />
            <mxPoint x="350" y="400" as="targetPoint" />
          </mxGeometry>
        </mxCell>
        <mxCell id="XMAbvpqeA-bFauw44eoh-56" value="" style="endArrow=none;html=1;rounded=0;exitX=0;exitY=0.5;exitDx=0;exitDy=0;entryX=1;entryY=0.5;entryDx=0;entryDy=0;" edge="1" parent="1" source="XMAbvpqeA-bFauw44eoh-50" target="XMAbvpqeA-bFauw44eoh-52">
          <mxGeometry width="50" height="50" relative="1" as="geometry">
            <mxPoint x="160" y="370" as="sourcePoint" />
            <mxPoint x="220" y="494" as="targetPoint" />
          </mxGeometry>
        </mxCell>
        <mxCell id="XMAbvpqeA-bFauw44eoh-57" value="" style="endArrow=none;html=1;rounded=0;exitX=0.5;exitY=1;exitDx=0;exitDy=0;entryX=0.75;entryY=0;entryDx=0;entryDy=0;" edge="1" parent="1" source="XMAbvpqeA-bFauw44eoh-53" target="XMAbvpqeA-bFauw44eoh-50">
          <mxGeometry width="50" height="50" relative="1" as="geometry">
            <mxPoint x="110" y="266" as="sourcePoint" />
            <mxPoint x="170" y="390" as="targetPoint" />
          </mxGeometry>
        </mxCell>
        <mxCell id="XMAbvpqeA-bFauw44eoh-58" value="" style="endArrow=none;html=1;rounded=0;exitX=0.5;exitY=1;exitDx=0;exitDy=0;entryX=0.5;entryY=0;entryDx=0;entryDy=0;" edge="1" parent="1" source="XMAbvpqeA-bFauw44eoh-50" target="XMAbvpqeA-bFauw44eoh-71">
          <mxGeometry width="50" height="50" relative="1" as="geometry">
            <mxPoint y="390" as="sourcePoint" />
            <mxPoint x="-103" y="459" as="targetPoint" />
          </mxGeometry>
        </mxCell>
        <mxCell id="XMAbvpqeA-bFauw44eoh-59" value="is offered" style="rhombus;whiteSpace=wrap;html=1;" vertex="1" parent="1">
          <mxGeometry x="270" y="320" width="80" height="80" as="geometry" />
        </mxCell>
        <mxCell id="XMAbvpqeA-bFauw44eoh-60" value="Course name" style="ellipse;whiteSpace=wrap;html=1;" vertex="1" parent="1">
          <mxGeometry x="630" y="70" width="120" height="80" as="geometry" />
        </mxCell>
        <mxCell id="XMAbvpqeA-bFauw44eoh-61" value="Courses" style="rounded=0;whiteSpace=wrap;html=1;" vertex="1" parent="1">
          <mxGeometry x="510" y="330" width="120" height="60" as="geometry" />
        </mxCell>
        <mxCell id="XMAbvpqeA-bFauw44eoh-62" value="Course id&lt;span style=&quot;white-space: pre;&quot;&gt;&#x9;&lt;/span&gt;" style="ellipse;whiteSpace=wrap;html=1;" vertex="1" parent="1">
          <mxGeometry x="440" y="90" width="120" height="80" as="geometry" />
        </mxCell>
        <mxCell id="XMAbvpqeA-bFauw44eoh-63" value="Regulations" style="ellipse;whiteSpace=wrap;html=1;" vertex="1" parent="1">
          <mxGeometry x="770" y="360" width="120" height="80" as="geometry" />
        </mxCell>
        <mxCell id="XMAbvpqeA-bFauw44eoh-64" value="Semester" style="ellipse;whiteSpace=wrap;html=1;" vertex="1" parent="1">
          <mxGeometry x="770" y="210" width="120" height="80" as="geometry" />
        </mxCell>
        <mxCell id="XMAbvpqeA-bFauw44eoh-65" value="" style="endArrow=none;html=1;rounded=0;exitX=0.583;exitY=0.975;exitDx=0;exitDy=0;exitPerimeter=0;entryX=0.5;entryY=0;entryDx=0;entryDy=0;" edge="1" parent="1" source="XMAbvpqeA-bFauw44eoh-60" target="XMAbvpqeA-bFauw44eoh-61">
          <mxGeometry width="50" height="50" relative="1" as="geometry">
            <mxPoint x="810" y="185" as="sourcePoint" />
            <mxPoint x="860" y="135" as="targetPoint" />
          </mxGeometry>
        </mxCell>
        <mxCell id="XMAbvpqeA-bFauw44eoh-66" value="" style="endArrow=none;html=1;rounded=0;exitX=0.45;exitY=1.038;exitDx=0;exitDy=0;exitPerimeter=0;" edge="1" parent="1" source="XMAbvpqeA-bFauw44eoh-62" target="XMAbvpqeA-bFauw44eoh-61">
          <mxGeometry width="50" height="50" relative="1" as="geometry">
            <mxPoint x="1120" y="390" as="sourcePoint" />
            <mxPoint x="1170" y="340" as="targetPoint" />
          </mxGeometry>
        </mxCell>
        <mxCell id="XMAbvpqeA-bFauw44eoh-67" value="" style="endArrow=none;html=1;rounded=0;" edge="1" parent="1" source="XMAbvpqeA-bFauw44eoh-61" target="XMAbvpqeA-bFauw44eoh-63">
          <mxGeometry width="50" height="50" relative="1" as="geometry">
            <mxPoint x="880" y="300" as="sourcePoint" />
            <mxPoint x="1040" y="434" as="targetPoint" />
          </mxGeometry>
        </mxCell>
        <mxCell id="XMAbvpqeA-bFauw44eoh-68" value="" style="endArrow=none;html=1;rounded=0;exitX=0.017;exitY=0.688;exitDx=0;exitDy=0;entryX=0.75;entryY=0;entryDx=0;entryDy=0;exitPerimeter=0;" edge="1" parent="1" source="XMAbvpqeA-bFauw44eoh-64" target="XMAbvpqeA-bFauw44eoh-61">
          <mxGeometry width="50" height="50" relative="1" as="geometry">
            <mxPoint x="930" y="206" as="sourcePoint" />
            <mxPoint x="990" y="330" as="targetPoint" />
          </mxGeometry>
        </mxCell>
        <mxCell id="XMAbvpqeA-bFauw44eoh-69" value="" style="endArrow=none;html=1;rounded=0;entryX=1;entryY=0.5;entryDx=0;entryDy=0;" edge="1" parent="1" target="XMAbvpqeA-bFauw44eoh-50">
          <mxGeometry width="50" height="50" relative="1" as="geometry">
            <mxPoint x="260" y="360" as="sourcePoint" />
            <mxPoint x="140" y="410" as="targetPoint" />
          </mxGeometry>
        </mxCell>
        <mxCell id="XMAbvpqeA-bFauw44eoh-70" value="" style="endArrow=none;html=1;rounded=0;exitX=0;exitY=0.5;exitDx=0;exitDy=0;" edge="1" parent="1" source="XMAbvpqeA-bFauw44eoh-61">
          <mxGeometry width="50" height="50" relative="1" as="geometry">
            <mxPoint x="440" y="260" as="sourcePoint" />
            <mxPoint x="360" y="360" as="targetPoint" />
          </mxGeometry>
        </mxCell>
        <mxCell id="XMAbvpqeA-bFauw44eoh-71" value="Student dpt" style="ellipse;whiteSpace=wrap;html=1;" vertex="1" parent="1">
          <mxGeometry x="-180" y="470" width="120" height="80" as="geometry" />
        </mxCell>
        <mxCell id="XMAbvpqeA-bFauw44eoh-72" value="Teaches" style="rhombus;whiteSpace=wrap;html=1;" vertex="1" parent="1">
          <mxGeometry x="270" y="570" width="80" height="80" as="geometry" />
        </mxCell>
        <mxCell id="XMAbvpqeA-bFauw44eoh-74" value="Id" style="ellipse;whiteSpace=wrap;html=1;" vertex="1" parent="1">
          <mxGeometry x="-40" y="810" width="120" height="80" as="geometry" />
        </mxCell>
        <mxCell id="XMAbvpqeA-bFauw44eoh-75" value="Instructor" style="rounded=0;whiteSpace=wrap;html=1;" vertex="1" parent="1">
          <mxGeometry x="210" y="880" width="120" height="60" as="geometry" />
        </mxCell>
        <mxCell id="XMAbvpqeA-bFauw44eoh-76" value="Department" style="ellipse;whiteSpace=wrap;html=1;" vertex="1" parent="1">
          <mxGeometry y="1000" width="120" height="80" as="geometry" />
        </mxCell>
        <mxCell id="XMAbvpqeA-bFauw44eoh-77" value="Title" style="ellipse;whiteSpace=wrap;html=1;" vertex="1" parent="1">
          <mxGeometry x="210" y="1040" width="120" height="80" as="geometry" />
        </mxCell>
        <mxCell id="XMAbvpqeA-bFauw44eoh-78" value="Name" style="ellipse;whiteSpace=wrap;html=1;" vertex="1" parent="1">
          <mxGeometry x="510" y="850" width="120" height="80" as="geometry" />
        </mxCell>
        <mxCell id="XMAbvpqeA-bFauw44eoh-79" value="" style="endArrow=none;html=1;rounded=0;entryX=0;entryY=0.5;entryDx=0;entryDy=0;" edge="1" parent="1" source="XMAbvpqeA-bFauw44eoh-74" target="XMAbvpqeA-bFauw44eoh-75">
          <mxGeometry width="50" height="50" relative="1" as="geometry">
            <mxPoint x="240" y="795" as="sourcePoint" />
            <mxPoint x="290" y="745" as="targetPoint" />
          </mxGeometry>
        </mxCell>
        <mxCell id="XMAbvpqeA-bFauw44eoh-80" value="" style="endArrow=none;html=1;rounded=0;" edge="1" parent="1" target="XMAbvpqeA-bFauw44eoh-75">
          <mxGeometry width="50" height="50" relative="1" as="geometry">
            <mxPoint x="120" y="1030" as="sourcePoint" />
            <mxPoint x="600" y="950" as="targetPoint" />
          </mxGeometry>
        </mxCell>
        <mxCell id="XMAbvpqeA-bFauw44eoh-81" value="" style="endArrow=none;html=1;rounded=0;exitX=0.5;exitY=1;exitDx=0;exitDy=0;entryX=0.5;entryY=0;entryDx=0;entryDy=0;" edge="1" parent="1" source="XMAbvpqeA-bFauw44eoh-75" target="XMAbvpqeA-bFauw44eoh-77">
          <mxGeometry width="50" height="50" relative="1" as="geometry">
            <mxPoint x="410" y="920" as="sourcePoint" />
            <mxPoint x="470" y="1044" as="targetPoint" />
          </mxGeometry>
        </mxCell>
        <mxCell id="XMAbvpqeA-bFauw44eoh-82" value="" style="endArrow=none;html=1;rounded=0;exitX=0.5;exitY=1;exitDx=0;exitDy=0;entryX=1;entryY=0.5;entryDx=0;entryDy=0;" edge="1" parent="1" source="XMAbvpqeA-bFauw44eoh-78" target="XMAbvpqeA-bFauw44eoh-75">
          <mxGeometry width="50" height="50" relative="1" as="geometry">
            <mxPoint x="360" y="816" as="sourcePoint" />
            <mxPoint x="420" y="940" as="targetPoint" />
          </mxGeometry>
        </mxCell>
        <mxCell id="XMAbvpqeA-bFauw44eoh-88" value="" style="endArrow=none;html=1;rounded=0;exitX=0.5;exitY=1;exitDx=0;exitDy=0;entryX=1;entryY=0.5;entryDx=0;entryDy=0;" edge="1" parent="1" source="XMAbvpqeA-bFauw44eoh-61" target="XMAbvpqeA-bFauw44eoh-72">
          <mxGeometry width="50" height="50" relative="1" as="geometry">
            <mxPoint x="480" y="460" as="sourcePoint" />
            <mxPoint x="360" y="540" as="targetPoint" />
          </mxGeometry>
        </mxCell>
        <mxCell id="XMAbvpqeA-bFauw44eoh-89" value="" style="endArrow=none;html=1;rounded=0;exitX=0.5;exitY=1;exitDx=0;exitDy=0;entryX=0.5;entryY=0;entryDx=0;entryDy=0;" edge="1" parent="1" source="XMAbvpqeA-bFauw44eoh-72" target="XMAbvpqeA-bFauw44eoh-75">
          <mxGeometry width="50" height="50" relative="1" as="geometry">
            <mxPoint x="390" y="710" as="sourcePoint" />
            <mxPoint x="270" y="790" as="targetPoint" />
          </mxGeometry>
        </mxCell>
        <mxCell id="XMAbvpqeA-bFauw44eoh-90" value="" style="endArrow=none;html=1;rounded=0;exitX=0;exitY=0.5;exitDx=0;exitDy=0;entryX=0.5;entryY=1;entryDx=0;entryDy=0;" edge="1" parent="1" source="XMAbvpqeA-bFauw44eoh-72" target="XMAbvpqeA-bFauw44eoh-50">
          <mxGeometry width="50" height="50" relative="1" as="geometry">
            <mxPoint x="230" y="505" as="sourcePoint" />
            <mxPoint x="110" y="585" as="targetPoint" />
          </mxGeometry>
        </mxCell>
      </root>
    </mxGraphModel>
  </diagram>
</mxfile>
